<svg xmlns="http://www.w3.org/2000/svg" width="61.794" height="61.794" viewBox="0 0 61.794 61.794"><defs><style>.a{fill:rgba(0,0,0,0);}.b,.c,.d{fill:#231f20;stroke:#fff;stroke-miterlimit:10;stroke-width:1.2px;}.b{opacity:0.5;}.c{opacity:0.7;}</style></defs><g transform="translate(6.895 6.899)"><rect class="a" width="48" height="48"/><g transform="translate(24 -5.699) rotate(45)"><path class="b" d="M5.7,28.8h0L0,23.223,9.009,14.4,0,5.577,5.7,0,20.4,14.4,5.7,28.8Zm0-27.1L1.733,5.577,10.742,14.4,1.733,23.223,5.7,27.1,18.667,14.4Z" transform="translate(15.6 6)"/><path class="c" d="M6.6,13.2h0L0,6.6,6.6,0l6.6,6.6L6.6,13.2Zm0-11.478h0L1.723,6.6,6.6,11.478,11.478,6.6,6.6,1.723Z" transform="translate(6 14.4)"/><path class="d" d="M21,42h0L0,21,21,0,42,21,21,42ZM21,1.718h0L1.718,21,21,40.281,40.281,21,21,1.718Z"/></g></g></svg>