<svg xmlns="http://www.w3.org/2000/svg" xmlns:xlink="http://www.w3.org/1999/xlink" width="33" height="36" viewBox="0 0 33 36"><defs><style>.a{fill:#0084ff;}.b{fill:url(#a);}</style><linearGradient id="a" x1="0.81" y1="0.973" x2="0.107" gradientUnits="objectBoundingBox"><stop offset="0" stop-color="#4a86ff"/><stop offset="1" stop-color="#1ec3ff"/></linearGradient></defs><g transform="translate(0 0)"><path class="a" d="M29.334,36H3.667A3.638,3.638,0,0,1,0,32.4L.018,7.2A3.629,3.629,0,0,1,3.667,3.6H5.5V0H9.167V3.6H23.833V0H27.5V3.6h1.833A3.638,3.638,0,0,1,33,7.2V32.4A3.638,3.638,0,0,1,29.334,36ZM3.667,12.6V32.4H29.334V12.6ZM20.166,27H7.333V23.4H20.166V27Zm5.5-7.2H7.333V16.2H25.667v3.6Z"/><path class="b" d="M29.334,36H3.667A3.638,3.638,0,0,1,0,32.4L.018,7.2A3.629,3.629,0,0,1,3.667,3.6H5.5V0H9.167V3.6H23.833V0H27.5V3.6h1.833A3.638,3.638,0,0,1,33,7.2V32.4A3.638,3.638,0,0,1,29.334,36ZM3.667,12.6V32.4H29.334V12.6ZM20.166,27H7.333V23.4H20.166V27Zm5.5-7.2H7.333V16.2H25.667v3.6Z"/></g></svg>