<svg xmlns="http://www.w3.org/2000/svg" xmlns:xlink="http://www.w3.org/1999/xlink" width="43" height="35" viewBox="0 0 43 35"><defs><style>.a{fill:#0084ff;}.b{fill:url(#a);}</style><linearGradient id="a" x1="0.81" y1="0.973" x2="0.107" gradientUnits="objectBoundingBox"><stop offset="0" stop-color="#4a86ff"/><stop offset="1" stop-color="#1ec3ff"/></linearGradient></defs><g transform="translate(0 0)"><path class="a" d="M29.318,35H13.682V31.111H3.909A3.9,3.9,0,0,1,0,27.222V3.889A3.9,3.9,0,0,1,3.909,0H39.091A3.9,3.9,0,0,1,43,3.889l-.02,23.333a3.882,3.882,0,0,1-3.89,3.889H29.318V35ZM3.909,3.889V27.222H39.091V3.889Z"/><path class="b" d="M29.318,35H13.682V31.111H3.909A3.9,3.9,0,0,1,0,27.222V3.889A3.9,3.9,0,0,1,3.909,0H39.091A3.9,3.9,0,0,1,43,3.889l-.02,23.333a3.882,3.882,0,0,1-3.89,3.889H29.318V35ZM3.909,3.889V27.222H39.091V3.889Z"/></g></svg>