<svg xmlns="http://www.w3.org/2000/svg" xmlns:xlink="http://www.w3.org/1999/xlink" width="28" height="39" viewBox="0 0 28 39"><defs><style>.a{fill:#0084ff;}.b{fill:url(#a);}</style><linearGradient id="a" x1="0.81" y1="0.973" x2="0.107" gradientUnits="objectBoundingBox"><stop offset="0" stop-color="#4a86ff"/><stop offset="1" stop-color="#1ec3ff"/></linearGradient></defs><g transform="translate(0 0)"><path class="a" d="M16,39H12V32.268a14.25,14.25,0,0,1-8.46-4.642A13.777,13.777,0,0,1,0,18.473H3.4a10.255,10.255,0,0,0,3.23,7.544,10.751,10.751,0,0,0,14.744,0A10.259,10.259,0,0,0,24.6,18.473H28a13.776,13.776,0,0,1-3.54,9.152A14.249,14.249,0,0,1,16,32.268V39ZM14,24.631a6.087,6.087,0,0,1-6-6.158V6.158A6.087,6.087,0,0,1,14,0a5.885,5.885,0,0,1,4.244,1.8A6.2,6.2,0,0,1,20,6.158l-.02,12.316A6.078,6.078,0,0,1,14,24.631Z"/><path class="b" d="M16,39H12V32.268a14.25,14.25,0,0,1-8.46-4.642A13.777,13.777,0,0,1,0,18.473H3.4a10.255,10.255,0,0,0,3.23,7.544,10.751,10.751,0,0,0,14.744,0A10.259,10.259,0,0,0,24.6,18.473H28a13.776,13.776,0,0,1-3.54,9.152A14.249,14.249,0,0,1,16,32.268V39ZM14,24.631a6.087,6.087,0,0,1-6-6.158V6.158A6.087,6.087,0,0,1,14,0a5.885,5.885,0,0,1,4.244,1.8A6.2,6.2,0,0,1,20,6.158l-.02,12.316A6.078,6.078,0,0,1,14,24.631Z"/></g></svg>