<svg xmlns="http://www.w3.org/2000/svg" xmlns:xlink="http://www.w3.org/1999/xlink" width="105" height="19" viewBox="0 0 105 19"><defs><style>.a{fill:none;}.b{fill:rgba(0,0,0,0);}.c{clip-path:url(#a);}.d{fill:rgba(255,255,255,0.6);}.e{clip-path:url(#b);}.f{clip-path:url(#c);}</style><clipPath id="a"><path class="a" d="M9.546,19a9.556,9.556,0,0,1-1.923-.195,9.408,9.408,0,0,1-1.794-.553,9.549,9.549,0,0,1-1.622-.876,9.532,9.532,0,0,1-2.576-2.563,9.49,9.49,0,0,1-1.438-3.4,9.563,9.563,0,0,1,0-3.826,9.447,9.447,0,0,1,1.438-3.4,9.564,9.564,0,0,1,15.829,0A9.346,9.346,0,0,1,18.34,5.8a9.4,9.4,0,0,1,.751,3.7,9.589,9.589,0,0,1-.193,1.915,9.49,9.49,0,0,1-1.438,3.4,9.516,9.516,0,0,1-2.577,2.563A9.579,9.579,0,0,1,9.546,19Zm-5.1-3.172h0a8.189,8.189,0,0,0,8.286,1.142,33.742,33.742,0,0,0-1.741-6.159l-.018.005-.037.011A12.4,12.4,0,0,0,5.921,13.99a8.327,8.327,0,0,0-1.385,1.9v0l0,0-.044-.033-.014-.011ZM14.208,10.3a10.941,10.941,0,0,0-1.695.13A35.27,35.27,0,0,1,14.1,16.227a8.135,8.135,0,0,0,3.493-5.439A11.531,11.531,0,0,0,14.208,10.3ZM1.4,9.244c0,.03,0,.06,0,.091v.1c0,.022,0,.046,0,.069a8.075,8.075,0,0,0,2.085,5.417s0,0,.006-.012a12.734,12.734,0,0,1,1.661-2.134,12.156,12.156,0,0,1,4.965-3.207c.118-.04.226-.072.321-.1-.2-.45-.422-.915-.661-1.38A30.268,30.268,0,0,1,1.675,9.246Zm12.5-.2a19.808,19.808,0,0,1,3.8.377,8.051,8.051,0,0,0-1.854-5.071A10.4,10.4,0,0,1,11.3,7.558c.2.412.385.808.542,1.177.04.092.079.185.116.275l.015.035.045.108A15.173,15.173,0,0,1,13.9,9.042ZM6.067,2.164a8.205,8.205,0,0,0-2.9,2.29A8.1,8.1,0,0,0,1.568,7.828h.158a30.474,30.474,0,0,0,7.368-.992A49.538,49.538,0,0,0,6.073,2.17Zm3.479-.776a8.219,8.219,0,0,0-1.922.229,41.545,41.545,0,0,1,3.047,4.733,10.834,10.834,0,0,0,3.238-1.861,5.961,5.961,0,0,0,1.019-1.073h0l0,0A8.163,8.163,0,0,0,9.546,1.387Z"/></clipPath><clipPath id="b"><path class="a" d="M5.483,15.938.529,13.481A1.039,1.039,0,0,1,0,12.632V.584C0,.267.173.077.419.077A.652.652,0,0,1,.7.152l5.624,2.79A.062.062,0,0,1,6.364,3V15.4c0,.4-.216.633-.524.633A.809.809,0,0,1,5.483,15.938Zm12.551-.087-4.487-2.226,5.545-8.94V15.4a.531.531,0,0,1-.558.585A1.145,1.145,0,0,1,18.033,15.851ZM7.276,10.514V4.429l5.451,8.789ZM9.1,5.647,12.417.3a.661.661,0,0,1,.559-.3.639.639,0,0,1,.158.021.613.613,0,0,1,.121.043l5.759,2.857.006,0a.062.062,0,0,1,.011.009.07.07,0,0,1,.018.091l-5.788,9.331Z"/></clipPath><clipPath id="c"><path class="a" d="M14.841,11.875a4.824,4.824,0,0,1-3.072-1.053,4.125,4.125,0,0,1-1.332-3.429,4.615,4.615,0,0,1,1.2-3.415,4.273,4.273,0,0,1,3.119-1.188,5.056,5.056,0,0,1,2.052.4,3.521,3.521,0,0,1,1.506,1.267,4.148,4.148,0,0,1,.7,1.771,10.9,10.9,0,0,1,.076,1.7H12.732a2.054,2.054,0,0,0,.914,1.806,2.358,2.358,0,0,0,1.258.323,1.963,1.963,0,0,0,1.265-.392,1.868,1.868,0,0,0,.47-.589h2.329a2.811,2.811,0,0,1-.845,1.549A4.3,4.3,0,0,1,14.841,11.875Zm-.083-7.237a1.837,1.837,0,0,0-1.362.489,2.325,2.325,0,0,0-.608,1.326H16.72A1.872,1.872,0,0,0,16.113,5.1,2.04,2.04,0,0,0,14.758,4.638ZM5.316,11.583H0V0H5.7A3.662,3.662,0,0,1,8.758,1.234,2.926,2.926,0,0,1,9.3,3a2.562,2.562,0,0,1-.546,1.706,2.836,2.836,0,0,1-.9.659A2.656,2.656,0,0,1,9.218,6.39a3.036,3.036,0,0,1,.459,1.7A3.346,3.346,0,0,1,9.15,9.934a3.236,3.236,0,0,1-.835.912,3.3,3.3,0,0,1-1.333.582A8.376,8.376,0,0,1,5.316,11.583Zm-2.964-5.1V9.573H5.216a2.852,2.852,0,0,0,1.2-.2,1.46,1.46,0,0,0,.776-1.445A1.248,1.248,0,0,0,6.436,6.68a3.031,3.031,0,0,0-1.18-.2Zm0-4.472V4.567H5.221a2.419,2.419,0,0,0,1.248-.288,1.092,1.092,0,0,0,.479-1.016,1.043,1.043,0,0,0-.633-1.071A4.567,4.567,0,0,0,4.92,2.011Zm14.9-.03H12.2V.54h5.056V1.981Z" transform="translate(0 0)"/></clipPath></defs><g transform="translate(85.909)"><rect class="b" width="19.091" height="19"/><path class="a" d="M9.546,19a9.556,9.556,0,0,1-1.923-.195,9.408,9.408,0,0,1-1.794-.553,9.549,9.549,0,0,1-1.622-.876,9.532,9.532,0,0,1-2.576-2.563,9.49,9.49,0,0,1-1.438-3.4,9.563,9.563,0,0,1,0-3.826,9.447,9.447,0,0,1,1.438-3.4,9.564,9.564,0,0,1,15.829,0A9.346,9.346,0,0,1,18.34,5.8a9.4,9.4,0,0,1,.751,3.7,9.589,9.589,0,0,1-.193,1.915,9.49,9.49,0,0,1-1.438,3.4,9.516,9.516,0,0,1-2.577,2.563A9.579,9.579,0,0,1,9.546,19Zm-5.1-3.172h0a8.189,8.189,0,0,0,8.286,1.142,33.742,33.742,0,0,0-1.741-6.159l-.018.005-.037.011A12.4,12.4,0,0,0,5.921,13.99a8.327,8.327,0,0,0-1.385,1.9v0l0,0-.044-.033-.014-.011ZM14.208,10.3a10.941,10.941,0,0,0-1.695.13A35.27,35.27,0,0,1,14.1,16.227a8.135,8.135,0,0,0,3.493-5.439A11.531,11.531,0,0,0,14.208,10.3ZM1.4,9.244c0,.03,0,.06,0,.091v.1c0,.022,0,.046,0,.069a8.075,8.075,0,0,0,2.085,5.417s0,0,.006-.012a12.734,12.734,0,0,1,1.661-2.134,12.156,12.156,0,0,1,4.965-3.207c.118-.04.226-.072.321-.1-.2-.45-.422-.915-.661-1.38A30.268,30.268,0,0,1,1.675,9.246Zm12.5-.2a19.808,19.808,0,0,1,3.8.377,8.051,8.051,0,0,0-1.854-5.071A10.4,10.4,0,0,1,11.3,7.558c.2.412.385.808.542,1.177.04.092.079.185.116.275l.015.035.045.108A15.173,15.173,0,0,1,13.9,9.042ZM6.067,2.164a8.205,8.205,0,0,0-2.9,2.29A8.1,8.1,0,0,0,1.568,7.828h.158a30.474,30.474,0,0,0,7.368-.992A49.538,49.538,0,0,0,6.073,2.17Zm3.479-.776a8.219,8.219,0,0,0-1.922.229,41.545,41.545,0,0,1,3.047,4.733,10.834,10.834,0,0,0,3.238-1.861,5.961,5.961,0,0,0,1.019-1.073h0l0,0A8.163,8.163,0,0,0,9.546,1.387Z" transform="translate(0 0)"/><g class="c" transform="translate(0 0)"><g transform="translate(0 0)"><rect class="b" width="19" height="19"/><rect class="d" width="19" height="19"/></g></g></g><g transform="translate(42.955)"><rect class="b" width="19.091" height="19"/><path class="a" d="M5.483,15.938.529,13.481A1.039,1.039,0,0,1,0,12.632V.584C0,.267.173.077.419.077A.652.652,0,0,1,.7.152l5.624,2.79A.062.062,0,0,1,6.364,3V15.4c0,.4-.216.633-.524.633A.809.809,0,0,1,5.483,15.938Zm12.551-.087-4.487-2.226,5.545-8.94V15.4a.531.531,0,0,1-.558.585A1.145,1.145,0,0,1,18.033,15.851ZM7.276,10.514V4.429l5.451,8.789ZM9.1,5.647,12.417.3a.661.661,0,0,1,.559-.3.639.639,0,0,1,.158.021.613.613,0,0,1,.121.043l5.759,2.857.006,0a.062.062,0,0,1,.011.009.07.07,0,0,1,.018.091l-5.788,9.331Z" transform="translate(0 1.781)"/><g class="e" transform="translate(0 1.781)"><g transform="translate(0 -1.781)"><rect class="b" width="19.091" height="19"/><rect class="d" width="19" height="19"/></g></g></g><rect class="b" width="19.091" height="19"/><path class="a" d="M14.841,11.875a4.824,4.824,0,0,1-3.072-1.053,4.125,4.125,0,0,1-1.332-3.429,4.615,4.615,0,0,1,1.2-3.415,4.273,4.273,0,0,1,3.119-1.188,5.056,5.056,0,0,1,2.052.4,3.521,3.521,0,0,1,1.506,1.267,4.148,4.148,0,0,1,.7,1.771,10.9,10.9,0,0,1,.076,1.7H12.732a2.054,2.054,0,0,0,.914,1.806,2.358,2.358,0,0,0,1.258.323,1.963,1.963,0,0,0,1.265-.392,1.868,1.868,0,0,0,.47-.589h2.329a2.811,2.811,0,0,1-.845,1.549A4.3,4.3,0,0,1,14.841,11.875Zm-.083-7.237a1.837,1.837,0,0,0-1.362.489,2.325,2.325,0,0,0-.608,1.326H16.72A1.872,1.872,0,0,0,16.113,5.1,2.04,2.04,0,0,0,14.758,4.638ZM5.316,11.583H0V0H5.7A3.662,3.662,0,0,1,8.758,1.234,2.926,2.926,0,0,1,9.3,3a2.562,2.562,0,0,1-.546,1.706,2.836,2.836,0,0,1-.9.659A2.656,2.656,0,0,1,9.218,6.39a3.036,3.036,0,0,1,.459,1.7A3.346,3.346,0,0,1,9.15,9.934a3.236,3.236,0,0,1-.835.912,3.3,3.3,0,0,1-1.333.582A8.376,8.376,0,0,1,5.316,11.583Zm-2.964-5.1V9.573H5.216a2.852,2.852,0,0,0,1.2-.2,1.46,1.46,0,0,0,.776-1.445A1.248,1.248,0,0,0,6.436,6.68a3.031,3.031,0,0,0-1.18-.2Zm0-4.472V4.567H5.221a2.419,2.419,0,0,0,1.248-.288,1.092,1.092,0,0,0,.479-1.016,1.043,1.043,0,0,0-.633-1.071A4.567,4.567,0,0,0,4.92,2.011Zm14.9-.03H12.2V.54h5.056V1.981Z" transform="translate(0 3.563)"/><g class="f" transform="translate(0 3.563)"><g transform="translate(0 -3.563)"><rect class="b" width="19" height="19"/><rect class="d" width="19" height="19"/></g></g></svg>